<?xml version="1.0" encoding="UTF-8"?>
<svg xmlns="http://www.w3.org/2000/svg" xmlns:xlink="http://www.w3.org/1999/xlink" width="800px" height="800px" viewBox="0 0 800 800" version="1.1">
<defs>
<clipPath id="clip1">
  <path d="M 113.066406 157 L 680 157 L 680 620.800781 L 113.066406 620.800781 Z M 113.066406 157 "/>
</clipPath>
<clipPath id="clip2">
  <path d="M 86.015625 200.550781 L 667.714844 133.109375 L 720.234375 586.074219 L 138.523438 653.515625 Z M 86.015625 200.550781 "/>
</clipPath>
<clipPath id="clip3">
  <path d="M 86.015625 200.550781 L 667.714844 133.109375 L 720.234375 586.074219 L 138.523438 653.515625 Z M 86.015625 200.550781 "/>
</clipPath>
<clipPath id="clip4">
  <path d="M 86.015625 200.550781 L 667.714844 133.109375 L 720.234375 586.074219 L 138.523438 653.515625 Z M 86.015625 200.550781 "/>
</clipPath>
</defs>
<g id="surface1">
<path style=" stroke:none;fill-rule:nonzero;fill:rgb(63.921569%,74.901961%,65.882353%);fill-opacity:1;" d="M 402.332031 128.109375 C 256.089844 128.109375 137.535156 246.660156 137.535156 392.910156 C 137.535156 539.148438 256.089844 657.707031 402.332031 657.707031 C 548.574219 657.707031 667.132812 539.148438 667.132812 392.910156 C 667.132812 246.660156 548.574219 128.109375 402.332031 128.109375 Z M 402.332031 128.109375 "/>
<g clip-path="url(#clip1)" clip-rule="nonzero">
<g clip-path="url(#clip2)" clip-rule="nonzero">
<g clip-path="url(#clip3)" clip-rule="nonzero">
<g clip-path="url(#clip4)" clip-rule="nonzero">
<path style=" stroke:none;fill-rule:nonzero;fill:rgb(15.294118%,12.54902%,13.72549%);fill-opacity:1;" d="M 434.800781 162.910156 C 455.484375 160.507812 474.785156 159.535156 494.125 160.082031 C 498.464844 160.140625 503.074219 160.167969 507.550781 160.207031 C 533.542969 160.265625 560.375 160.375 585.175781 167 C 613.125 174.382812 633.976562 189.160156 649.058594 212.015625 C 653.800781 219.160156 658.066406 227.050781 661.542969 235.308594 C 679.199219 277.992188 681.734375 332.359375 669.089844 396.867188 C 664.800781 411.625 659.058594 425.984375 652.367188 439.339844 C 607.132812 539.640625 525.957031 605.800781 434.984375 616.351562 C 429.199219 617.023438 423.375 617.417969 417.535156 617.675781 C 406.273438 618.140625 394.898438 617.640625 383.589844 616.433594 L 383.308594 616.464844 C 326.160156 617.5 264.015625 602.058594 217.042969 575.214844 C 176.042969 551.734375 125.550781 507.824219 117.417969 431.609375 C 112.183594 386.5 121.292969 333.726562 142.273438 286.984375 C 147.117188 276.917969 153.035156 267.699219 159.632812 259.535156 C 166.832031 250.582031 174.75 242.957031 183.898438 236.308594 C 192.007812 230.332031 201.058594 225.234375 211.285156 220.691406 C 227.351562 215.890625 243.667969 210.792969 259.441406 205.882812 C 316.351562 188.242188 374.984375 169.839844 434.800781 162.910156 M 434.484375 160.148438 C 357.566406 169.066406 284.175781 196.308594 210.433594 218.132812 C 200.601562 222.492188 191.273438 227.625 182.382812 234.109375 C 173.5 240.589844 165.183594 248.398438 157.476562 257.824219 C 150.390625 266.609375 144.492188 275.957031 139.757812 285.734375 C 119.550781 330.714844 109.058594 383.648438 114.660156 431.925781 C 129.25 568.625 279.226562 621.125 383.066406 619.148438 C 394.675781 620.464844 406.167969 620.808594 417.441406 620.484375 C 423.417969 620.207031 429.242188 619.808594 435.167969 619.125 C 529.449219 608.191406 610.183594 539.425781 654.609375 440.617188 C 662.109375 425.773438 667.566406 411.441406 671.550781 397.558594 C 682.089844 343.917969 684.75 284.898438 663.800781 234.351562 C 660.332031 226.082031 656.066406 218.191406 651.125 210.515625 C 613.625 153.359375 548.792969 158.082031 493.957031 157.449219 C 473.917969 156.832031 454.058594 157.882812 434.484375 160.148438 Z M 434.484375 160.148438 "/>
</g>
</g>
</g>
</g>
<path style=" stroke:none;fill-rule:nonzero;fill:rgb(15.294118%,12.54902%,13.72549%);fill-opacity:1;" d="M 199.546875 375.0625 C 200.253906 373.152344 201.460938 370.21875 203.179688 366.261719 C 205.488281 360.820312 207.230469 356.527344 208.410156 353.394531 C 209.613281 350.246094 210.210938 347.960938 210.210938 346.5625 C 210.210938 345.746094 209.988281 345.085938 209.546875 344.59375 C 209.09375 344.113281 208.554688 343.753906 207.910156 343.527344 C 207.285156 343.285156 206.460938 343.0625 205.445312 342.863281 C 204.6875 342.710938 204.113281 342.5625 203.710938 342.429688 C 203.644531 342.121094 203.613281 341.792969 203.613281 341.460938 C 203.613281 341.085938 203.644531 340.71875 203.710938 340.363281 L 220.710938 340.363281 C 220.777344 340.960938 220.8125 341.578125 220.8125 342.195312 C 220.386719 342.527344 219.855469 342.84375 219.210938 343.128906 C 218.585938 343.417969 217.980469 343.695312 217.378906 343.960938 L 216.578125 344.363281 C 215.796875 344.71875 215.09375 345.363281 214.480469 346.292969 C 213.855469 347.210938 213.320312 348.1875 212.878906 349.226562 C 212.453125 350.277344 211.953125 351.59375 211.378906 353.195312 C 210.863281 354.621094 210.546875 355.511719 210.410156 355.863281 C 208.785156 359.621094 206.71875 364.6875 204.210938 371.0625 C 201.695312 377.445312 200.046875 381.652344 199.246094 383.695312 C 199.128906 383.710938 198.886719 383.761719 198.511719 383.828125 C 198.152344 383.910156 197.863281 383.960938 197.644531 383.960938 C 197.046875 383.960938 196.585938 383.9375 196.277344 383.894531 C 191.429688 372.761719 186.019531 360.613281 180.046875 347.429688 C 179.511719 346.277344 178.960938 345.386719 178.410156 344.761719 C 177.878906 344.144531 177.261719 343.679688 176.578125 343.363281 C 175.886719 343.054688 174.863281 342.6875 173.511719 342.261719 L 173.578125 340.363281 L 193.011719 340.363281 C 193.011719 340.5625 193.019531 340.746094 193.046875 340.894531 C 193.0625 341.027344 193.085938 341.152344 193.113281 341.261719 C 193.128906 341.394531 193.152344 341.554688 193.179688 341.726562 C 193.195312 341.910156 193.210938 342.121094 193.210938 342.363281 C 192.71875 342.519531 192.285156 342.628906 191.910156 342.695312 C 190.421875 343.054688 189.246094 343.445312 188.378906 343.863281 C 187.527344 344.285156 187.113281 344.929688 187.113281 345.792969 C 187.113281 346.328125 187.628906 347.828125 188.679688 350.292969 C 189.746094 352.761719 191.421875 356.5625 193.710938 361.695312 C 196.554688 367.945312 198.496094 372.394531 199.546875 375.0625 Z M 199.546875 375.0625 "/>
<path style=" stroke:none;fill-rule:nonzero;fill:rgb(15.294118%,12.54902%,13.72549%);fill-opacity:1;" d="M 268.621094 383.628906 C 268.261719 383.695312 267.921875 383.726562 267.585938 383.726562 C 267.164062 383.726562 266.53125 383.660156 265.6875 383.527344 C 264.863281 383.394531 264.230469 383.328125 263.789062 383.328125 L 229.921875 383.328125 L 229.855469 381.726562 C 230.539062 381.351562 231.171875 381.085938 231.753906 380.929688 C 232.328125 380.753906 232.972656 380.613281 233.6875 380.496094 C 234.570312 380.34375 235.222656 380.144531 235.621094 379.894531 C 236.019531 379.652344 236.328125 379.128906 236.554688 378.328125 C 236.769531 377.527344 236.886719 376.261719 236.886719 374.527344 L 236.886719 349.527344 C 236.886719 347.820312 236.738281 346.5625 236.453125 345.761719 C 236.1875 344.945312 235.789062 344.378906 235.253906 344.0625 C 234.738281 343.726562 233.863281 343.386719 232.621094 343.027344 C 232.4375 342.960938 232.0625 342.84375 231.488281 342.660156 C 230.929688 342.488281 230.386719 342.285156 229.855469 342.0625 L 229.921875 340.363281 L 263.585938 340.363281 C 263.894531 340.363281 264.230469 340.34375 264.585938 340.292969 C 264.9375 340.253906 265.195312 340.21875 265.355469 340.195312 C 266.019531 340.085938 266.621094 340.027344 267.15625 340.027344 C 267.621094 340.027344 268.019531 340.078125 268.355469 340.160156 L 268.355469 350.429688 L 266.65625 350.496094 C 266.269531 350.121094 265.960938 349.710938 265.722656 349.261719 C 265.472656 348.792969 265.195312 348.1875 264.886719 347.429688 C 264.460938 346.34375 264.03125 345.488281 263.585938 344.863281 C 263.164062 344.246094 262.53125 343.785156 261.6875 343.496094 C 260.460938 343.121094 258.9375 342.878906 257.121094 342.761719 C 255.296875 342.652344 253.1875 342.59375 250.789062 342.59375 C 247.960938 342.59375 245.738281 342.695312 244.121094 342.894531 C 244.03125 343.878906 243.988281 345.011719 243.988281 346.292969 L 243.988281 359.660156 L 253.488281 359.660156 C 255.222656 359.660156 256.503906 359.542969 257.355469 359.292969 C 258.222656 359.027344 258.886719 358.59375 259.355469 357.996094 C 259.835938 357.394531 260.503906 356.34375 261.355469 354.828125 L 261.820312 353.929688 L 263.722656 353.929688 L 263.722656 368.09375 L 261.820312 368.195312 C 261.128906 366.3125 260.238281 364.84375 259.15625 363.792969 C 258.0625 362.726562 256.605469 362.195312 254.789062 362.195312 L 243.988281 362.195312 L 243.988281 373.292969 C 243.988281 375.613281 244.253906 377.320312 244.789062 378.429688 C 245.320312 379.519531 246.097656 380.226562 247.121094 380.5625 C 248.136719 380.878906 249.605469 381.027344 251.519531 381.027344 L 254.753906 381.027344 C 257.503906 381.027344 259.886719 380.71875 261.886719 380.09375 C 263.90625 379.453125 265.40625 378.160156 266.386719 376.226562 L 266.855469 375.226562 C 267.253906 374.363281 267.5625 373.71875 267.789062 373.292969 C 268.03125 372.851562 268.335938 372.445312 268.722656 372.0625 L 270.820312 372.0625 Z M 268.621094 383.628906 "/>
<path style=" stroke:none;fill-rule:nonzero;fill:rgb(15.294118%,12.54902%,13.72549%);fill-opacity:1;" d="M 326.503906 380.195312 C 324.1875 381.394531 321.535156 382.363281 318.535156 383.09375 C 315.554688 383.828125 312.535156 384.195312 309.46875 384.195312 C 304.488281 384.195312 300.113281 383.285156 296.335938 381.460938 C 292.578125 379.644531 289.652344 377.085938 287.570312 373.792969 C 285.503906 370.488281 284.46875 366.652344 284.46875 362.292969 C 284.46875 357.828125 285.652344 353.878906 288.035156 350.429688 C 290.410156 346.960938 293.605469 344.285156 297.605469 342.394531 C 301.605469 340.511719 305.96875 339.5625 310.703125 339.5625 C 313.277344 339.5625 315.644531 339.761719 317.804688 340.160156 C 319.980469 340.542969 322.4375 341.21875 325.171875 342.195312 L 326.171875 352.160156 C 325.480469 352.226562 324.835938 352.261719 324.238281 352.261719 C 323.945312 351.996094 323.671875 351.652344 323.402344 351.226562 C 323.152344 350.8125 322.8125 350.1875 322.371094 349.363281 C 322.144531 348.917969 321.910156 348.488281 321.671875 348.0625 C 321.421875 347.621094 321.203125 347.277344 321.003906 347.027344 C 318.246094 343.746094 314.519531 342.09375 309.835938 342.09375 C 306.503906 342.09375 303.503906 342.917969 300.835938 344.5625 C 298.171875 346.210938 296.078125 348.488281 294.570312 351.394531 C 293.078125 354.285156 292.335938 357.511719 292.335938 361.0625 C 292.335938 364.910156 293.078125 368.378906 294.570312 371.460938 C 296.054688 374.527344 298.144531 376.945312 300.835938 378.695312 C 303.519531 380.429688 306.585938 381.292969 310.035156 381.292969 C 311.855469 381.292969 313.46875 381.144531 314.871094 380.828125 C 316.269531 380.496094 317.585938 379.929688 318.835938 379.128906 C 319.105469 376.886719 319.238281 374.09375 319.238281 370.761719 C 319.238281 368.679688 318.921875 366.785156 318.304688 365.09375 C 318.054688 364.410156 317.605469 363.929688 316.9375 363.660156 C 316.269531 363.378906 315.371094 363.144531 314.238281 362.960938 C 313.210938 362.785156 312.503906 362.621094 312.105469 362.460938 C 312.105469 362.152344 312.113281 361.828125 312.136719 361.496094 C 312.152344 361.144531 312.171875 360.894531 312.171875 360.761719 L 331.96875 360.761719 C 331.96875 360.894531 331.980469 361.144531 332.003906 361.496094 C 332.019531 361.828125 332.035156 362.152344 332.035156 362.460938 C 331.746094 362.578125 331.421875 362.6875 331.070312 362.792969 C 330.019531 363.179688 329.203125 363.527344 328.605469 363.863281 C 328.003906 364.195312 327.503906 364.695312 327.105469 365.363281 C 326.703125 366.027344 326.503906 366.929688 326.503906 368.0625 Z M 326.503906 380.195312 "/>
<path style=" stroke:none;fill-rule:nonzero;fill:rgb(15.294118%,12.54902%,13.72549%);fill-opacity:1;" d="M 353.253906 365.761719 L 352.621094 367.363281 C 351.636719 369.945312 350.859375 372.0625 350.285156 373.726562 C 349.703125 375.378906 349.417969 376.652344 349.417969 377.5625 C 349.417969 378.34375 349.703125 378.988281 350.285156 379.496094 C 350.886719 380.011719 351.5625 380.386719 352.320312 380.628906 C 353.070312 380.878906 353.996094 381.113281 355.085938 381.328125 L 355.71875 381.460938 L 355.71875 383.328125 L 340.152344 383.328125 L 340.152344 381.628906 C 340.460938 381.386719 340.769531 381.1875 341.085938 381.027344 C 341.417969 380.851562 341.820312 380.660156 342.285156 380.460938 C 343.0625 380.152344 343.6875 379.828125 344.152344 379.496094 C 344.636719 379.160156 345.0625 378.652344 345.417969 377.960938 C 345.636719 377.519531 345.859375 377.019531 346.085938 376.460938 C 346.328125 375.886719 346.484375 375.511719 346.554688 375.328125 L 346.953125 374.328125 L 359.285156 342.726562 C 359.371094 342.488281 359.4375 342.0625 359.484375 341.460938 C 359.503906 341.019531 359.535156 340.660156 359.585938 340.394531 C 359.652344 340.113281 359.761719 339.863281 359.917969 339.660156 C 360.984375 339.660156 361.902344 339.777344 362.6875 339.996094 C 363.484375 340.195312 364.269531 340.59375 365.054688 341.195312 L 380.21875 377.527344 C 380.484375 378.195312 380.804688 378.746094 381.1875 379.160156 C 381.5625 379.5625 381.953125 379.878906 382.351562 380.09375 C 382.769531 380.292969 383.328125 380.542969 384.019531 380.828125 C 384.621094 381.027344 385.253906 381.292969 385.917969 381.628906 L 385.851562 383.328125 L 366.652344 383.328125 L 366.585938 381.628906 C 367.601562 381.320312 368.484375 381.011719 369.21875 380.695312 C 369.96875 380.386719 370.636719 379.953125 371.21875 379.394531 C 371.820312 378.84375 372.121094 378.179688 372.121094 377.394531 C 372.121094 376.511719 371.019531 373.246094 368.820312 367.59375 C 368.6875 367.261719 368.554688 366.945312 368.417969 366.628906 C 368.304688 366.320312 368.203125 366.027344 368.121094 365.761719 Z M 360.417969 346.628906 L 354.386719 362.863281 L 366.917969 362.863281 Z M 360.417969 346.628906 "/>
<path style=" stroke:none;fill-rule:nonzero;fill:rgb(15.294118%,12.54902%,13.72549%);fill-opacity:1;" d="M 403.671875 347.328125 C 403.089844 346.417969 402.488281 345.6875 401.871094 345.128906 C 401.273438 344.578125 400.65625 344.152344 400.039062 343.863281 C 399.414062 343.578125 398.589844 343.261719 397.570312 342.929688 C 396.570312 342.59375 395.789062 342.320312 395.238281 342.09375 L 395.238281 340.363281 L 406.773438 340.363281 L 437.804688 372.460938 L 437.804688 351.726562 C 437.804688 349.644531 437.503906 347.746094 436.90625 346.027344 C 436.65625 345.320312 436.320312 344.761719 435.90625 344.363281 C 435.503906 343.960938 435.054688 343.679688 434.570312 343.496094 C 434.082031 343.320312 433.4375 343.144531 432.640625 342.960938 C 432.503906 342.917969 432.15625 342.828125 431.605469 342.695312 C 431.070312 342.542969 430.582031 342.351562 430.140625 342.128906 C 430.140625 341.554688 430.171875 340.960938 430.238281 340.363281 L 447.640625 340.363281 L 447.640625 342.160156 C 447.015625 342.453125 446.378906 342.726562 445.738281 342.996094 C 444.113281 343.6875 442.988281 344.261719 442.371094 344.726562 C 441.773438 345.195312 441.339844 345.917969 441.070312 346.894531 C 440.820312 347.878906 440.6875 349.476562 440.671875 351.695312 C 440.671875 352.8125 440.648438 354.460938 440.605469 356.660156 C 440.582031 358.351562 440.554688 360.445312 440.539062 362.929688 C 440.515625 365.417969 440.503906 368.34375 440.503906 371.695312 C 440.503906 373.144531 440.640625 375.292969 440.90625 378.160156 C 441.121094 380.5625 441.246094 382.386719 441.273438 383.628906 C 440.847656 383.777344 440.3125 383.863281 439.671875 383.863281 C 438.957031 383.863281 438.320312 383.777344 437.773438 383.628906 C 436.1875 381.695312 434.390625 379.644531 432.371094 377.460938 L 406.304688 350.027344 L 406.304688 373.195312 C 406.304688 374.660156 406.488281 376.152344 406.871094 377.660156 C 407.046875 378.394531 407.355469 378.976562 407.804688 379.394531 C 408.273438 379.792969 408.773438 380.085938 409.304688 380.261719 C 409.855469 380.445312 410.589844 380.621094 411.503906 380.792969 C 412.789062 380.996094 413.738281 381.261719 414.339844 381.59375 C 414.339844 382.152344 414.304688 382.726562 414.238281 383.328125 L 395.640625 383.328125 C 395.589844 382.929688 395.570312 382.34375 395.570312 381.5625 L 397.105469 381.160156 C 398.503906 380.8125 399.613281 380.460938 400.4375 380.128906 C 401.253906 379.792969 401.972656 379.261719 402.570312 378.527344 C 403.1875 377.777344 403.554688 376.746094 403.671875 375.429688 Z M 403.671875 347.328125 "/>
<path style=" stroke:none;fill-rule:nonzero;fill:rgb(15.294118%,12.54902%,13.72549%);fill-opacity:1;" d="M 493.101562 367.960938 C 492.476562 368.027344 491.84375 368.0625 491.203125 368.0625 C 490.203125 365.953125 489.371094 364.488281 488.703125 363.660156 C 488.054688 362.820312 487.285156 362.277344 486.402344 362.027344 C 485.535156 361.785156 484.136719 361.660156 482.203125 361.660156 L 474.003906 361.660156 L 474.003906 374.828125 C 474.003906 376.519531 474.167969 377.761719 474.503906 378.5625 C 474.835938 379.363281 475.277344 379.894531 475.835938 380.160156 C 476.386719 380.410156 477.234375 380.621094 478.371094 380.792969 C 479.1875 380.929688 479.851562 381.054688 480.371094 381.160156 C 480.902344 381.253906 481.453125 381.410156 482.035156 381.628906 L 482.035156 383.328125 L 459.804688 383.328125 L 459.734375 381.628906 C 460.269531 381.386719 460.777344 381.195312 461.269531 381.0625 C 461.753906 380.929688 462.179688 380.828125 462.535156 380.761719 C 462.886719 380.679688 463.121094 380.621094 463.234375 380.59375 C 464.234375 380.394531 464.953125 380.179688 465.402344 379.929688 C 465.871094 379.660156 466.234375 379.144531 466.503906 378.363281 C 466.769531 377.585938 466.902344 376.378906 466.902344 374.726562 L 466.902344 349.628906 C 466.902344 347.851562 466.746094 346.542969 466.4375 345.695312 C 466.144531 344.851562 465.71875 344.277344 465.167969 343.960938 C 464.609375 343.628906 463.703125 343.292969 462.4375 342.960938 C 461.277344 342.652344 460.3125 342.351562 459.535156 342.0625 L 459.535156 340.363281 L 492.570312 340.328125 L 498.101562 340.261719 L 498.101562 350.496094 L 496.636719 350.5625 C 496.304688 350.1875 496.003906 349.785156 495.734375 349.363281 C 495.46875 348.945312 495.136719 348.351562 494.734375 347.59375 C 494.246094 346.660156 493.8125 345.917969 493.4375 345.363281 C 493.054688 344.785156 492.578125 344.277344 492.003906 343.828125 C 491.445312 343.386719 490.785156 343.121094 490.035156 343.027344 C 488.984375 342.878906 487.945312 342.785156 486.902344 342.761719 C 485.851562 342.71875 484.554688 342.695312 483.003906 342.695312 L 476.667969 342.695312 C 475.820312 342.695312 475.234375 342.746094 474.902344 342.828125 C 474.570312 342.917969 474.335938 343.121094 474.203125 343.429688 C 474.070312 343.746094 474.003906 344.285156 474.003906 345.0625 L 474.003906 359.160156 C 474.9375 359.160156 476.21875 359.179688 477.871094 359.195312 C 479.3125 359.246094 480.371094 359.261719 481.035156 359.261719 C 483.609375 359.261719 485.746094 359.054688 487.4375 358.628906 C 488.144531 358.429688 488.703125 358.054688 489.101562 357.496094 C 489.519531 356.917969 489.945312 356.144531 490.371094 355.160156 C 490.4375 355.011719 490.542969 354.761719 490.703125 354.429688 C 490.851562 354.078125 491.003906 353.777344 491.136719 353.527344 L 493.101562 353.59375 Z M 493.101562 367.960938 "/>
<path style=" stroke:none;fill-rule:nonzero;fill:rgb(15.294118%,12.54902%,13.72549%);fill-opacity:1;" d="M 547.363281 383.628906 C 547.003906 383.695312 546.660156 383.726562 546.328125 383.726562 C 545.902344 383.726562 545.269531 383.660156 544.429688 383.527344 C 543.605469 383.394531 542.96875 383.328125 542.527344 383.328125 L 508.660156 383.328125 L 508.59375 381.726562 C 509.277344 381.351562 509.910156 381.085938 510.496094 380.929688 C 511.070312 380.753906 511.710938 380.613281 512.429688 380.496094 C 513.3125 380.34375 513.960938 380.144531 514.363281 379.894531 C 514.761719 379.652344 515.070312 379.128906 515.296875 378.328125 C 515.511719 377.527344 515.628906 376.261719 515.628906 374.527344 L 515.628906 349.527344 C 515.628906 347.820312 515.480469 346.5625 515.195312 345.761719 C 514.929688 344.945312 514.527344 344.378906 513.996094 344.0625 C 513.480469 343.726562 512.605469 343.386719 511.363281 343.027344 C 511.179688 342.960938 510.804688 342.84375 510.230469 342.660156 C 509.671875 342.488281 509.128906 342.285156 508.59375 342.0625 L 508.660156 340.363281 L 542.328125 340.363281 C 542.636719 340.363281 542.96875 340.34375 543.328125 340.292969 C 543.679688 340.253906 543.9375 340.21875 544.09375 340.195312 C 544.761719 340.085938 545.363281 340.027344 545.894531 340.027344 C 546.363281 340.027344 546.761719 340.078125 547.09375 340.160156 L 547.09375 350.429688 L 545.394531 350.496094 C 545.011719 350.121094 544.703125 349.710938 544.460938 349.261719 C 544.210938 348.792969 543.9375 348.1875 543.628906 347.429688 C 543.203125 346.34375 542.769531 345.488281 542.328125 344.863281 C 541.902344 344.246094 541.269531 343.785156 540.429688 343.496094 C 539.203125 343.121094 537.679688 342.878906 535.863281 342.761719 C 534.035156 342.652344 531.929688 342.59375 529.527344 342.59375 C 526.703125 342.59375 524.480469 342.695312 522.863281 342.894531 C 522.769531 343.878906 522.730469 345.011719 522.730469 346.292969 L 522.730469 359.660156 L 532.230469 359.660156 C 533.960938 359.660156 535.246094 359.542969 536.09375 359.292969 C 536.960938 359.027344 537.628906 358.59375 538.09375 357.996094 C 538.578125 357.394531 539.246094 356.34375 540.09375 354.828125 L 540.5625 353.929688 L 542.460938 353.929688 L 542.460938 368.09375 L 540.5625 368.195312 C 539.871094 366.3125 538.980469 364.84375 537.894531 363.792969 C 536.804688 362.726562 535.34375 362.195312 533.527344 362.195312 L 522.730469 362.195312 L 522.730469 373.292969 C 522.730469 375.613281 522.996094 377.320312 523.527344 378.429688 C 524.0625 379.519531 524.835938 380.226562 525.863281 380.5625 C 526.878906 380.878906 528.34375 381.027344 530.261719 381.027344 L 533.496094 381.027344 C 536.246094 381.027344 538.628906 380.71875 540.628906 380.09375 C 542.644531 379.453125 544.144531 378.160156 545.128906 376.226562 L 545.59375 375.226562 C 545.996094 374.363281 546.304688 373.71875 546.527344 373.292969 C 546.769531 372.851562 547.078125 372.445312 547.460938 372.0625 L 549.5625 372.0625 Z M 547.363281 383.628906 "/>
<path style=" stroke:none;fill-rule:nonzero;fill:rgb(15.294118%,12.54902%,13.72549%);fill-opacity:1;" d="M 600.511719 383.628906 C 600.152344 383.695312 599.8125 383.726562 599.476562 383.726562 C 599.054688 383.726562 598.417969 383.660156 597.578125 383.527344 C 596.753906 383.394531 596.121094 383.328125 595.679688 383.328125 L 561.8125 383.328125 L 561.746094 381.726562 C 562.429688 381.351562 563.0625 381.085938 563.644531 380.929688 C 564.21875 380.753906 564.859375 380.613281 565.578125 380.496094 C 566.460938 380.34375 567.109375 380.144531 567.511719 379.894531 C 567.910156 379.652344 568.21875 379.128906 568.445312 378.328125 C 568.660156 377.527344 568.777344 376.261719 568.777344 374.527344 L 568.777344 349.527344 C 568.777344 347.820312 568.628906 346.5625 568.34375 345.761719 C 568.078125 344.945312 567.679688 344.378906 567.144531 344.0625 C 566.628906 343.726562 565.753906 343.386719 564.511719 343.027344 C 564.328125 342.960938 563.953125 342.84375 563.378906 342.660156 C 562.820312 342.488281 562.277344 342.285156 561.746094 342.0625 L 561.8125 340.363281 L 595.476562 340.363281 C 595.785156 340.363281 596.121094 340.34375 596.476562 340.292969 C 596.828125 340.253906 597.085938 340.21875 597.246094 340.195312 C 597.910156 340.085938 598.511719 340.027344 599.042969 340.027344 C 599.511719 340.027344 599.910156 340.078125 600.246094 340.160156 L 600.246094 350.429688 L 598.542969 350.496094 C 598.160156 350.121094 597.851562 349.710938 597.609375 349.261719 C 597.359375 348.792969 597.085938 348.1875 596.777344 347.429688 C 596.351562 346.34375 595.917969 345.488281 595.476562 344.863281 C 595.054688 344.246094 594.417969 343.785156 593.578125 343.496094 C 592.351562 343.121094 590.828125 342.878906 589.011719 342.761719 C 587.1875 342.652344 585.078125 342.59375 582.679688 342.59375 C 579.851562 342.59375 577.628906 342.695312 576.011719 342.894531 C 575.917969 343.878906 575.878906 345.011719 575.878906 346.292969 L 575.878906 359.660156 L 585.378906 359.660156 C 587.109375 359.660156 588.394531 359.542969 589.246094 359.292969 C 590.109375 359.027344 590.777344 358.59375 591.246094 357.996094 C 591.726562 357.394531 592.394531 356.34375 593.246094 354.828125 L 593.710938 353.929688 L 595.609375 353.929688 L 595.609375 368.09375 L 593.710938 368.195312 C 593.019531 366.3125 592.128906 364.84375 591.042969 363.792969 C 589.953125 362.726562 588.496094 362.195312 586.679688 362.195312 L 575.878906 362.195312 L 575.878906 373.292969 C 575.878906 375.613281 576.144531 377.320312 576.679688 378.429688 C 577.210938 379.519531 577.984375 380.226562 579.011719 380.5625 C 580.027344 380.878906 581.496094 381.027344 583.410156 381.027344 L 586.644531 381.027344 C 589.394531 381.027344 591.777344 380.71875 593.777344 380.09375 C 595.792969 379.453125 597.292969 378.160156 598.277344 376.226562 L 598.746094 375.226562 C 599.144531 374.363281 599.453125 373.71875 599.679688 373.292969 C 599.917969 372.851562 600.226562 372.445312 600.609375 372.0625 L 602.710938 372.0625 Z M 600.511719 383.628906 "/>
<path style=" stroke:none;fill-rule:nonzero;fill:rgb(15.294118%,12.54902%,13.72549%);fill-opacity:1;" d="M 627.160156 342.828125 C 625.136719 342.828125 623.535156 342.917969 622.359375 343.09375 C 621.578125 343.1875 620.875 343.488281 620.261719 343.996094 C 619.636719 344.511719 619.09375 345.085938 618.625 345.726562 C 618.175781 346.351562 617.644531 347.210938 617.027344 348.292969 C 616.359375 349.453125 615.777344 350.328125 615.292969 350.929688 L 613.792969 350.929688 L 614.59375 340.160156 C 618.234375 340.320312 622.925781 340.394531 628.660156 340.394531 L 641.527344 340.363281 L 645.859375 340.363281 C 650.300781 340.363281 653.894531 340.277344 656.625 340.09375 L 657.695312 350.960938 L 656.09375 350.960938 C 655.777344 350.5625 655.445312 350.0625 655.09375 349.460938 C 654.734375 348.863281 654.5 348.476562 654.394531 348.292969 C 653.5 346.746094 652.675781 345.519531 651.925781 344.628906 C 651.167969 343.746094 650.277344 343.226562 649.261719 343.09375 C 648.5 342.988281 647.742188 342.917969 646.992188 342.894531 C 646.234375 342.851562 645.277344 342.828125 644.125 342.828125 L 639.09375 342.828125 L 639.09375 375.363281 C 639.09375 377.078125 639.375 378.34375 639.960938 379.160156 C 640.535156 379.988281 641.300781 380.542969 642.261719 380.828125 C 643.210938 381.121094 644.636719 381.386719 646.527344 381.628906 C 646.527344 382.386719 646.5 382.953125 646.460938 383.328125 L 624.625 383.328125 L 624.558594 381.628906 C 624.933594 381.496094 625.527344 381.320312 626.328125 381.09375 C 627.609375 380.695312 628.625 380.320312 629.359375 379.960938 C 630.109375 379.613281 630.734375 379.078125 631.226562 378.363281 C 631.734375 377.628906 631.992188 376.628906 631.992188 375.363281 L 631.992188 342.828125 Z M 627.160156 342.828125 "/>
<path style=" stroke:none;fill-rule:nonzero;fill:rgb(15.294118%,12.54902%,13.72549%);fill-opacity:1;" d="M 191.148438 419.167969 C 191.148438 418.167969 191.320312 417.167969 191.679688 416.167969 C 192.03125 415.148438 192.546875 414.25 193.214844 413.46875 C 193.898438 412.667969 194.746094 412.023438 195.746094 411.535156 C 196.746094 411.023438 197.863281 410.765625 199.113281 410.765625 C 200.621094 410.765625 201.914062 411.117188 202.980469 411.800781 C 204.046875 412.46875 204.828125 413.359375 205.347656 414.46875 L 204.046875 415.265625 C 203.78125 414.71875 203.445312 414.25 203.046875 413.867188 C 202.664062 413.492188 202.253906 413.183594 201.8125 412.933594 C 201.363281 412.691406 200.898438 412.523438 200.414062 412.433594 C 199.945312 412.324219 199.488281 412.265625 199.046875 412.265625 C 198.023438 412.265625 197.121094 412.484375 196.347656 412.898438 C 195.5625 413.300781 194.914062 413.832031 194.378906 414.5 C 193.863281 415.167969 193.480469 415.917969 193.214844 416.734375 C 192.945312 417.558594 192.8125 418.398438 192.8125 419.265625 C 192.8125 420.199219 192.964844 421.101562 193.28125 421.96875 C 193.613281 422.816406 194.054688 423.566406 194.613281 424.234375 C 195.164062 424.882812 195.820312 425.390625 196.578125 425.765625 C 197.355469 426.148438 198.195312 426.332031 199.113281 426.332031 C 199.578125 426.332031 200.054688 426.285156 200.546875 426.167969 C 201.054688 426.058594 201.546875 425.867188 202.011719 425.601562 C 202.480469 425.332031 202.898438 425.015625 203.28125 424.632812 C 203.679688 424.257812 204.011719 423.792969 204.28125 423.234375 L 205.679688 423.933594 C 205.414062 424.558594 205.03125 425.117188 204.546875 425.601562 C 204.054688 426.09375 203.496094 426.5 202.878906 426.832031 C 202.28125 427.167969 201.648438 427.425781 200.980469 427.601562 C 200.3125 427.75 199.65625 427.832031 199.011719 427.832031 C 197.855469 427.832031 196.789062 427.59375 195.8125 427.101562 C 194.855469 426.59375 194.03125 425.933594 193.347656 425.132812 C 192.65625 424.316406 192.113281 423.382812 191.714844 422.332031 C 191.328125 421.292969 191.148438 420.234375 191.148438 419.167969 Z M 191.148438 419.167969 "/>
<path style=" stroke:none;fill-rule:nonzero;fill:rgb(15.294118%,12.54902%,13.72549%);fill-opacity:1;" d="M 211.925781 427.699219 L 211.925781 410.867188 L 219.058594 410.867188 C 219.765625 410.867188 220.425781 411.023438 221.023438 411.332031 C 221.640625 411.648438 222.175781 412.058594 222.625 412.566406 C 223.066406 413.058594 223.40625 413.625 223.65625 414.265625 C 223.898438 414.890625 224.023438 415.523438 224.023438 416.167969 C 224.023438 416.765625 223.933594 417.359375 223.757812 417.933594 C 223.574219 418.492188 223.324219 418.992188 222.992188 419.433594 C 222.65625 419.882812 222.257812 420.257812 221.789062 420.566406 C 221.339844 420.882812 220.839844 421.09375 220.289062 421.199219 L 224.390625 427.699219 L 222.523438 427.699219 L 218.558594 421.5 L 213.589844 421.5 L 213.589844 427.699219 Z M 213.589844 420.035156 L 219.089844 420.035156 C 219.574219 420.035156 220.023438 419.925781 220.425781 419.699219 C 220.824219 419.484375 221.164062 419.191406 221.457031 418.832031 C 221.742188 418.484375 221.964844 418.066406 222.125 417.601562 C 222.273438 417.132812 222.359375 416.660156 222.359375 416.167969 C 222.359375 415.660156 222.265625 415.167969 222.089844 414.699219 C 221.90625 414.234375 221.664062 413.832031 221.359375 413.5 C 221.039062 413.148438 220.675781 412.867188 220.257812 412.667969 C 219.832031 412.449219 219.398438 412.332031 218.957031 412.332031 L 213.589844 412.332031 Z M 213.589844 420.035156 "/>
<path style=" stroke:none;fill-rule:nonzero;fill:rgb(15.294118%,12.54902%,13.72549%);fill-opacity:1;" d="M 237.652344 426.332031 C 238.71875 426.332031 239.59375 426.132812 240.285156 425.734375 C 240.996094 425.332031 241.5625 424.800781 241.988281 424.132812 C 242.402344 423.46875 242.695312 422.726562 242.855469 421.898438 C 243.027344 421.058594 243.121094 420.21875 243.121094 419.367188 L 243.121094 410.867188 L 244.753906 410.867188 L 244.753906 419.367188 C 244.753906 420.5 244.628906 421.582031 244.386719 422.601562 C 244.136719 423.625 243.730469 424.523438 243.152344 425.300781 C 242.59375 426.058594 241.863281 426.667969 240.953125 427.132812 C 240.0625 427.601562 238.96875 427.832031 237.6875 427.832031 C 236.355469 427.832031 235.230469 427.59375 234.320312 427.101562 C 233.402344 426.617188 232.671875 425.984375 232.121094 425.199219 C 231.5625 424.398438 231.160156 423.5 230.921875 422.5 C 230.695312 421.484375 230.585938 420.433594 230.585938 419.367188 L 230.585938 410.867188 L 232.21875 410.867188 L 232.21875 419.367188 C 232.21875 420.257812 232.304688 421.125 232.488281 421.96875 C 232.660156 422.792969 232.960938 423.523438 233.386719 424.167969 C 233.804688 424.816406 234.363281 425.332031 235.054688 425.734375 C 235.738281 426.132812 236.605469 426.332031 237.652344 426.332031 Z M 237.652344 426.332031 "/>
<path style=" stroke:none;fill-rule:nonzero;fill:rgb(15.294118%,12.54902%,13.72549%);fill-opacity:1;" d="M 263.429688 426.234375 L 263.429688 427.699219 L 252.132812 427.699219 L 252.132812 410.867188 L 263.230469 410.867188 L 263.230469 412.332031 L 253.796875 412.332031 L 253.796875 418.398438 L 262.03125 418.398438 L 262.03125 419.800781 L 253.796875 419.800781 L 253.796875 426.234375 Z M 263.429688 426.234375 "/>
<path style=" stroke:none;fill-rule:nonzero;fill:rgb(15.294118%,12.54902%,13.72549%);fill-opacity:1;" d="M 269.984375 427.699219 L 269.984375 410.867188 L 271.652344 410.867188 L 271.652344 426.234375 L 281.386719 426.234375 L 281.386719 427.699219 Z M 269.984375 427.699219 "/>
<path style=" stroke:none;fill-rule:nonzero;fill:rgb(15.294118%,12.54902%,13.72549%);fill-opacity:1;" d="M 299.191406 412.332031 L 293.191406 412.332031 L 293.191406 427.699219 L 291.523438 427.699219 L 291.523438 412.332031 L 285.523438 412.332031 L 285.523438 410.867188 L 299.191406 410.867188 Z M 299.191406 412.332031 "/>
<path style=" stroke:none;fill-rule:nonzero;fill:rgb(15.294118%,12.54902%,13.72549%);fill-opacity:1;" d="M 305.203125 410.867188 L 310.703125 419.933594 L 316.238281 410.867188 L 318.035156 410.867188 L 311.535156 421.433594 L 311.535156 427.699219 L 309.871094 427.699219 L 309.871094 421.398438 L 303.371094 410.867188 Z M 305.203125 410.867188 "/>
<path style=" stroke:none;fill-rule:nonzero;fill:rgb(15.294118%,12.54902%,13.72549%);fill-opacity:1;" d="M 323.386719 422 L 323.386719 420.5 L 330.320312 420.5 L 330.320312 422 Z M 323.386719 422 "/>
<path style=" stroke:none;fill-rule:nonzero;fill:rgb(15.294118%,12.54902%,13.72549%);fill-opacity:1;" d="M 337.378906 427.699219 L 337.378906 410.867188 L 348.445312 410.867188 L 348.445312 412.332031 L 339.046875 412.332031 L 339.046875 418.535156 L 346.980469 418.535156 L 346.980469 419.898438 L 339.046875 419.898438 L 339.046875 427.699219 Z M 337.378906 427.699219 "/>
<path style=" stroke:none;fill-rule:nonzero;fill:rgb(15.294118%,12.54902%,13.72549%);fill-opacity:1;" d="M 354.761719 427.699219 L 354.761719 410.867188 L 361.894531 410.867188 C 362.601562 410.867188 363.261719 411.023438 363.859375 411.332031 C 364.476562 411.648438 365.011719 412.058594 365.460938 412.566406 C 365.902344 413.058594 366.246094 413.625 366.496094 414.265625 C 366.734375 414.890625 366.859375 415.523438 366.859375 416.167969 C 366.859375 416.765625 366.769531 417.359375 366.59375 417.933594 C 366.410156 418.492188 366.160156 418.992188 365.828125 419.433594 C 365.496094 419.882812 365.09375 420.257812 364.628906 420.566406 C 364.175781 420.882812 363.675781 421.09375 363.128906 421.199219 L 367.226562 427.699219 L 365.359375 427.699219 L 361.394531 421.5 L 356.425781 421.5 L 356.425781 427.699219 Z M 356.425781 420.035156 L 361.925781 420.035156 C 362.410156 420.035156 362.859375 419.925781 363.261719 419.699219 C 363.660156 419.484375 364.003906 419.191406 364.292969 418.832031 C 364.578125 418.484375 364.800781 418.066406 364.960938 417.601562 C 365.109375 417.132812 365.195312 416.660156 365.195312 416.167969 C 365.195312 415.660156 365.101562 415.167969 364.925781 414.699219 C 364.746094 414.234375 364.503906 413.832031 364.195312 413.5 C 363.878906 413.148438 363.511719 412.867188 363.09375 412.667969 C 362.667969 412.449219 362.234375 412.332031 361.792969 412.332031 L 356.425781 412.332031 Z M 356.425781 420.035156 "/>
<path style=" stroke:none;fill-rule:nonzero;fill:rgb(15.294118%,12.54902%,13.72549%);fill-opacity:1;" d="M 384.957031 426.234375 L 384.957031 427.699219 L 373.65625 427.699219 L 373.65625 410.867188 L 384.757812 410.867188 L 384.757812 412.332031 L 375.324219 412.332031 L 375.324219 418.398438 L 383.558594 418.398438 L 383.558594 419.800781 L 375.324219 419.800781 L 375.324219 426.234375 Z M 384.957031 426.234375 "/>
<path style=" stroke:none;fill-rule:nonzero;fill:rgb(15.294118%,12.54902%,13.72549%);fill-opacity:1;" d="M 402.8125 426.234375 L 402.8125 427.699219 L 391.511719 427.699219 L 391.511719 410.867188 L 402.613281 410.867188 L 402.613281 412.332031 L 393.179688 412.332031 L 393.179688 418.398438 L 401.410156 418.398438 L 401.410156 419.800781 L 393.179688 419.800781 L 393.179688 426.234375 Z M 402.8125 426.234375 "/>
<path style=" stroke:none;fill-rule:nonzero;fill:rgb(15.294118%,12.54902%,13.72549%);fill-opacity:1;" d="M 418.839844 427.699219 L 418.839844 410.867188 L 429.90625 410.867188 L 429.90625 412.332031 L 420.507812 412.332031 L 420.507812 418.535156 L 428.441406 418.535156 L 428.441406 419.898438 L 420.507812 419.898438 L 420.507812 427.699219 Z M 418.839844 427.699219 "/>
<path style=" stroke:none;fill-rule:nonzero;fill:rgb(15.294118%,12.54902%,13.72549%);fill-opacity:1;" d="M 443.019531 427.832031 C 441.835938 427.832031 440.761719 427.59375 439.789062 427.101562 C 438.828125 426.617188 437.996094 425.96875 437.289062 425.167969 C 436.597656 424.367188 436.0625 423.457031 435.6875 422.433594 C 435.304688 421.417969 435.121094 420.367188 435.121094 419.300781 C 435.121094 418.167969 435.320312 417.09375 435.722656 416.066406 C 436.121094 415.050781 436.671875 414.148438 437.386719 413.367188 C 438.097656 412.566406 438.929688 411.933594 439.886719 411.46875 C 440.863281 411 441.90625 410.765625 443.019531 410.765625 C 444.195312 410.765625 445.261719 411.015625 446.222656 411.5 C 447.195312 411.992188 448.03125 412.648438 448.722656 413.46875 C 449.40625 414.265625 449.9375 415.183594 450.320312 416.199219 C 450.695312 417.226562 450.886719 418.257812 450.886719 419.300781 C 450.886719 420.433594 450.6875 421.515625 450.289062 422.535156 C 449.886719 423.558594 449.328125 424.46875 448.621094 425.265625 C 447.929688 426.050781 447.097656 426.667969 446.121094 427.132812 C 445.164062 427.601562 444.128906 427.832031 443.019531 427.832031 Z M 436.789062 419.300781 C 436.789062 420.21875 436.929688 421.09375 437.222656 421.933594 C 437.53125 422.785156 437.953125 423.535156 438.488281 424.199219 C 439.039062 424.851562 439.695312 425.367188 440.453125 425.765625 C 441.230469 426.148438 442.085938 426.332031 443.019531 426.332031 C 443.953125 426.332031 444.804688 426.132812 445.585938 425.734375 C 446.363281 425.316406 447.019531 424.765625 447.554688 424.101562 C 448.085938 423.433594 448.496094 422.691406 448.789062 421.867188 C 449.097656 421.023438 449.253906 420.167969 449.253906 419.300781 C 449.253906 418.367188 449.097656 417.484375 448.789062 416.632812 C 448.472656 415.792969 448.039062 415.050781 447.488281 414.398438 C 446.929688 413.757812 446.269531 413.25 445.519531 412.867188 C 444.761719 412.46875 443.929688 412.265625 443.019531 412.265625 C 442.0625 412.265625 441.195312 412.46875 440.421875 412.867188 C 439.636719 413.265625 438.988281 413.800781 438.453125 414.46875 C 437.921875 415.132812 437.503906 415.890625 437.222656 416.734375 C 436.929688 417.558594 436.789062 418.417969 436.789062 419.300781 Z M 436.789062 419.300781 "/>
<path style=" stroke:none;fill-rule:nonzero;fill:rgb(15.294118%,12.54902%,13.72549%);fill-opacity:1;" d="M 464.238281 427.832031 C 463.054688 427.832031 461.980469 427.59375 461.003906 427.101562 C 460.046875 426.617188 459.210938 425.96875 458.503906 425.167969 C 457.8125 424.367188 457.277344 423.457031 456.902344 422.433594 C 456.519531 421.417969 456.335938 420.367188 456.335938 419.300781 C 456.335938 418.167969 456.539062 417.09375 456.9375 416.066406 C 457.335938 415.050781 457.886719 414.148438 458.605469 413.367188 C 459.3125 412.566406 460.144531 411.933594 461.105469 411.46875 C 462.078125 411 463.121094 410.765625 464.238281 410.765625 C 465.414062 410.765625 466.480469 411.015625 467.4375 411.5 C 468.414062 411.992188 469.246094 412.648438 469.9375 413.46875 C 470.621094 414.265625 471.152344 415.183594 471.539062 416.199219 C 471.914062 417.226562 472.105469 418.257812 472.105469 419.300781 C 472.105469 420.433594 471.902344 421.515625 471.503906 422.535156 C 471.105469 423.558594 470.546875 424.46875 469.835938 425.265625 C 469.144531 426.050781 468.3125 426.667969 467.335938 427.132812 C 466.378906 427.601562 465.347656 427.832031 464.238281 427.832031 Z M 458.003906 419.300781 C 458.003906 420.21875 458.144531 421.09375 458.4375 421.933594 C 458.746094 422.785156 459.171875 423.535156 459.703125 424.199219 C 460.253906 424.851562 460.914062 425.367188 461.671875 425.765625 C 462.445312 426.148438 463.304688 426.332031 464.238281 426.332031 C 465.171875 426.332031 466.019531 426.132812 466.804688 425.734375 C 467.578125 425.316406 468.238281 424.765625 468.769531 424.101562 C 469.304688 423.433594 469.710938 422.691406 470.003906 421.867188 C 470.3125 421.023438 470.472656 420.167969 470.472656 419.300781 C 470.472656 418.367188 470.3125 417.484375 470.003906 416.632812 C 469.6875 415.792969 469.253906 415.050781 468.703125 414.398438 C 468.144531 413.757812 467.488281 413.25 466.738281 412.867188 C 465.980469 412.46875 465.144531 412.265625 464.238281 412.265625 C 463.277344 412.265625 462.414062 412.46875 461.636719 412.867188 C 460.855469 413.265625 460.203125 413.800781 459.671875 414.46875 C 459.136719 415.132812 458.722656 415.890625 458.4375 416.734375 C 458.144531 417.558594 458.003906 418.417969 458.003906 419.300781 Z M 458.003906 419.300781 "/>
<path style=" stroke:none;fill-rule:nonzero;fill:rgb(15.294118%,12.54902%,13.72549%);fill-opacity:1;" d="M 490.621094 412.332031 L 484.621094 412.332031 L 484.621094 427.699219 L 482.953125 427.699219 L 482.953125 412.332031 L 476.953125 412.332031 L 476.953125 410.867188 L 490.621094 410.867188 Z M 490.621094 412.332031 "/>
<path style=" stroke:none;fill-rule:nonzero;fill:rgb(15.294118%,12.54902%,13.72549%);fill-opacity:1;" d="M 502.867188 411 L 504.433594 411 L 506.800781 416.96875 L 509.199219 411 L 510.800781 411 L 507.832031 418.167969 L 511.066406 425.765625 L 517.164062 410.867188 L 518.964844 410.867188 L 511.832031 427.699219 L 510.367188 427.699219 L 506.832031 419.367188 L 503.265625 427.699219 L 501.832031 427.699219 L 494.730469 410.867188 L 496.5 410.867188 L 502.597656 425.765625 L 505.800781 418.167969 Z M 502.867188 411 "/>
<path style=" stroke:none;fill-rule:nonzero;fill:rgb(15.294118%,12.54902%,13.72549%);fill-opacity:1;" d="M 536.03125 426.234375 L 536.03125 427.699219 L 524.734375 427.699219 L 524.734375 410.867188 L 535.832031 410.867188 L 535.832031 412.332031 L 526.398438 412.332031 L 526.398438 418.398438 L 534.632812 418.398438 L 534.632812 419.800781 L 526.398438 419.800781 L 526.398438 426.234375 Z M 536.03125 426.234375 "/>
<path style=" stroke:none;fill-rule:nonzero;fill:rgb(15.294118%,12.54902%,13.72549%);fill-opacity:1;" d="M 547.820312 410.867188 L 549.222656 410.867188 L 556.1875 427.699219 L 554.453125 427.699219 L 552.253906 422.433594 L 544.722656 422.433594 L 542.554688 427.699219 L 540.789062 427.699219 Z M 551.886719 421.132812 L 548.488281 412.800781 L 545.054688 421.132812 Z M 551.886719 421.132812 "/>
<path style=" stroke:none;fill-rule:nonzero;fill:rgb(15.294118%,12.54902%,13.72549%);fill-opacity:1;" d="M 562.027344 427.699219 L 562.027344 410.867188 L 569.160156 410.867188 C 569.871094 410.867188 570.527344 411.023438 571.128906 411.332031 C 571.746094 411.648438 572.277344 412.058594 572.726562 412.566406 C 573.171875 413.058594 573.511719 413.625 573.761719 414.265625 C 574.003906 414.890625 574.128906 415.523438 574.128906 416.167969 C 574.128906 416.765625 574.035156 417.359375 573.863281 417.933594 C 573.679688 418.492188 573.429688 418.992188 573.09375 419.433594 C 572.761719 419.882812 572.363281 420.257812 571.894531 420.566406 C 571.445312 420.882812 570.945312 421.09375 570.394531 421.199219 L 574.496094 427.699219 L 572.628906 427.699219 L 568.660156 421.5 L 563.695312 421.5 L 563.695312 427.699219 Z M 563.695312 420.035156 L 569.195312 420.035156 C 569.679688 420.035156 570.128906 419.925781 570.527344 419.699219 C 570.929688 419.484375 571.269531 419.191406 571.5625 418.832031 C 571.84375 418.484375 572.070312 418.066406 572.226562 417.601562 C 572.378906 417.132812 572.460938 416.660156 572.460938 416.167969 C 572.460938 415.660156 572.371094 415.167969 572.195312 414.699219 C 572.011719 414.234375 571.769531 413.832031 571.460938 413.5 C 571.144531 413.148438 570.777344 412.867188 570.363281 412.667969 C 569.9375 412.449219 569.503906 412.332031 569.0625 412.332031 L 563.695312 412.332031 Z M 563.695312 420.035156 "/>
<path style=" stroke:none;fill-rule:nonzero;fill:rgb(15.294118%,12.54902%,13.72549%);fill-opacity:1;" d="M 590.398438 427.699219 L 590.398438 410.867188 L 601.464844 410.867188 L 601.464844 412.332031 L 592.066406 412.332031 L 592.066406 418.535156 L 600 418.535156 L 600 419.898438 L 592.066406 419.898438 L 592.066406 427.699219 Z M 590.398438 427.699219 "/>
<path style=" stroke:none;fill-rule:nonzero;fill:rgb(15.294118%,12.54902%,13.72549%);fill-opacity:1;" d="M 614.578125 427.832031 C 613.394531 427.832031 612.320312 427.59375 611.347656 427.101562 C 610.386719 426.617188 609.554688 425.96875 608.847656 425.167969 C 608.15625 424.367188 607.621094 423.457031 607.246094 422.433594 C 606.863281 421.417969 606.679688 420.367188 606.679688 419.300781 C 606.679688 418.167969 606.878906 417.09375 607.28125 416.066406 C 607.679688 415.050781 608.230469 414.148438 608.945312 413.367188 C 609.65625 412.566406 610.488281 411.933594 611.445312 411.46875 C 612.421875 411 613.460938 410.765625 614.578125 410.765625 C 615.753906 410.765625 616.820312 411.015625 617.78125 411.5 C 618.753906 411.992188 619.585938 412.648438 620.28125 413.46875 C 620.960938 414.265625 621.496094 415.183594 621.878906 416.199219 C 622.253906 417.226562 622.445312 418.257812 622.445312 419.300781 C 622.445312 420.433594 622.246094 421.515625 621.847656 422.535156 C 621.445312 423.558594 620.886719 424.46875 620.179688 425.265625 C 619.488281 426.050781 618.65625 426.667969 617.679688 427.132812 C 616.722656 427.601562 615.6875 427.832031 614.578125 427.832031 Z M 608.347656 419.300781 C 608.347656 420.21875 608.488281 421.09375 608.78125 421.933594 C 609.085938 422.785156 609.511719 423.535156 610.046875 424.199219 C 610.597656 424.851562 611.253906 425.367188 612.011719 425.765625 C 612.789062 426.148438 613.644531 426.332031 614.578125 426.332031 C 615.511719 426.332031 616.363281 426.132812 617.144531 425.734375 C 617.921875 425.316406 618.578125 424.765625 619.113281 424.101562 C 619.644531 423.433594 620.054688 422.691406 620.347656 421.867188 C 620.65625 421.023438 620.8125 420.167969 620.8125 419.300781 C 620.8125 418.367188 620.65625 417.484375 620.347656 416.632812 C 620.03125 415.792969 619.597656 415.050781 619.046875 414.398438 C 618.488281 413.757812 617.828125 413.25 617.078125 412.867188 C 616.320312 412.46875 615.488281 412.265625 614.578125 412.265625 C 613.621094 412.265625 612.753906 412.46875 611.980469 412.867188 C 611.195312 413.265625 610.546875 413.800781 610.011719 414.46875 C 609.480469 415.132812 609.0625 415.890625 608.78125 416.734375 C 608.488281 417.558594 608.347656 418.417969 608.347656 419.300781 Z M 608.347656 419.300781 "/>
<path style=" stroke:none;fill-rule:nonzero;fill:rgb(15.294118%,12.54902%,13.72549%);fill-opacity:1;" d="M 628.996094 427.699219 L 628.996094 410.867188 L 636.128906 410.867188 C 636.835938 410.867188 637.496094 411.023438 638.097656 411.332031 C 638.710938 411.648438 639.246094 412.058594 639.695312 412.566406 C 640.136719 413.058594 640.480469 413.625 640.730469 414.265625 C 640.972656 414.890625 641.097656 415.523438 641.097656 416.167969 C 641.097656 416.765625 641.003906 417.359375 640.828125 417.933594 C 640.644531 418.492188 640.394531 418.992188 640.0625 419.433594 C 639.730469 419.882812 639.328125 420.257812 638.863281 420.566406 C 638.414062 420.882812 637.914062 421.09375 637.363281 421.199219 L 641.460938 427.699219 L 639.597656 427.699219 L 635.628906 421.5 L 630.664062 421.5 L 630.664062 427.699219 Z M 630.664062 420.035156 L 636.164062 420.035156 C 636.644531 420.035156 637.097656 419.925781 637.496094 419.699219 C 637.894531 419.484375 638.238281 419.191406 638.527344 418.832031 C 638.8125 418.484375 639.039062 418.066406 639.195312 417.601562 C 639.347656 417.132812 639.429688 416.660156 639.429688 416.167969 C 639.429688 415.660156 639.335938 415.167969 639.164062 414.699219 C 638.980469 414.234375 638.738281 413.832031 638.429688 413.5 C 638.113281 413.148438 637.746094 412.867188 637.328125 412.667969 C 636.902344 412.449219 636.472656 412.332031 636.027344 412.332031 L 630.664062 412.332031 Z M 630.664062 420.035156 "/>
<path style=" stroke:none;fill-rule:nonzero;fill:rgb(15.294118%,12.54902%,13.72549%);fill-opacity:1;" d="M 349.773438 458.234375 L 349.773438 459.699219 L 338.472656 459.699219 L 338.472656 442.867188 L 349.570312 442.867188 L 349.570312 444.332031 L 340.136719 444.332031 L 340.136719 450.398438 L 348.371094 450.398438 L 348.371094 451.800781 L 340.136719 451.800781 L 340.136719 458.234375 Z M 349.773438 458.234375 "/>
<path style=" stroke:none;fill-rule:nonzero;fill:rgb(15.294118%,12.54902%,13.72549%);fill-opacity:1;" d="M 356.257812 442.867188 L 362.292969 457.632812 L 368.292969 442.867188 L 370.027344 442.867188 L 362.992188 459.699219 L 361.558594 459.699219 L 354.527344 442.867188 Z M 356.257812 442.867188 "/>
<path style=" stroke:none;fill-rule:nonzero;fill:rgb(15.294118%,12.54902%,13.72549%);fill-opacity:1;" d="M 387.136719 458.234375 L 387.136719 459.699219 L 375.839844 459.699219 L 375.839844 442.867188 L 386.9375 442.867188 L 386.9375 444.332031 L 377.503906 444.332031 L 377.503906 450.398438 L 385.738281 450.398438 L 385.738281 451.800781 L 377.503906 451.800781 L 377.503906 458.234375 Z M 387.136719 458.234375 "/>
<path style=" stroke:none;fill-rule:nonzero;fill:rgb(15.294118%,12.54902%,13.72549%);fill-opacity:1;" d="M 393.691406 459.699219 L 393.691406 442.867188 L 400.824219 442.867188 C 401.535156 442.867188 402.191406 443.023438 402.792969 443.332031 C 403.410156 443.648438 403.941406 444.058594 404.390625 444.566406 C 404.835938 445.058594 405.175781 445.625 405.425781 446.265625 C 405.667969 446.890625 405.792969 447.523438 405.792969 448.167969 C 405.792969 448.765625 405.699219 449.359375 405.527344 449.933594 C 405.34375 450.492188 405.09375 450.992188 404.757812 451.433594 C 404.425781 451.882812 404.027344 452.257812 403.558594 452.566406 C 403.109375 452.882812 402.609375 453.09375 402.058594 453.199219 L 406.160156 459.699219 L 404.292969 459.699219 L 400.324219 453.5 L 395.359375 453.5 L 395.359375 459.699219 Z M 395.359375 452.035156 L 400.859375 452.035156 C 401.34375 452.035156 401.792969 451.925781 402.191406 451.699219 C 402.59375 451.484375 402.933594 451.191406 403.226562 450.832031 C 403.507812 450.484375 403.734375 450.066406 403.890625 449.601562 C 404.042969 449.132812 404.125 448.660156 404.125 448.167969 C 404.125 447.660156 404.035156 447.167969 403.859375 446.699219 C 403.675781 446.234375 403.433594 445.832031 403.125 445.5 C 402.808594 445.148438 402.441406 444.867188 402.027344 444.667969 C 401.601562 444.449219 401.167969 444.332031 400.726562 444.332031 L 395.359375 444.332031 Z M 395.359375 452.035156 "/>
<path style=" stroke:none;fill-rule:nonzero;fill:rgb(15.294118%,12.54902%,13.72549%);fill-opacity:1;" d="M 412.6875 442.867188 L 418.1875 451.933594 L 423.722656 442.867188 L 425.523438 442.867188 L 419.023438 453.433594 L 419.023438 459.699219 L 417.355469 459.699219 L 417.355469 453.398438 L 410.855469 442.867188 Z M 412.6875 442.867188 "/>
<path style=" stroke:none;fill-rule:nonzero;fill:rgb(15.294118%,12.54902%,13.72549%);fill-opacity:1;" d="M 438.238281 459.832031 C 437.054688 459.832031 435.980469 459.59375 435.003906 459.101562 C 434.046875 458.617188 433.210938 457.96875 432.503906 457.167969 C 431.8125 456.367188 431.28125 455.457031 430.90625 454.433594 C 430.519531 453.417969 430.335938 452.367188 430.335938 451.300781 C 430.335938 450.167969 430.539062 449.09375 430.9375 448.066406 C 431.335938 447.050781 431.886719 446.148438 432.605469 445.367188 C 433.3125 444.566406 434.144531 443.933594 435.105469 443.46875 C 436.078125 443 437.121094 442.765625 438.238281 442.765625 C 439.414062 442.765625 440.480469 443.015625 441.4375 443.5 C 442.414062 443.992188 443.246094 444.648438 443.9375 445.46875 C 444.621094 446.265625 445.15625 447.183594 445.539062 448.199219 C 445.914062 449.226562 446.105469 450.257812 446.105469 451.300781 C 446.105469 452.433594 445.90625 453.515625 445.503906 454.535156 C 445.105469 455.558594 444.546875 456.46875 443.835938 457.265625 C 443.144531 458.050781 442.3125 458.667969 441.335938 459.132812 C 440.378906 459.601562 439.347656 459.832031 438.238281 459.832031 Z M 432.003906 451.300781 C 432.003906 452.21875 432.144531 453.09375 432.4375 453.933594 C 432.746094 454.785156 433.171875 455.535156 433.703125 456.199219 C 434.253906 456.851562 434.914062 457.367188 435.671875 457.765625 C 436.445312 458.148438 437.304688 458.332031 438.238281 458.332031 C 439.171875 458.332031 440.019531 458.132812 440.804688 457.734375 C 441.578125 457.316406 442.238281 456.765625 442.769531 456.101562 C 443.304688 455.433594 443.710938 454.691406 444.003906 453.867188 C 444.3125 453.023438 444.472656 452.167969 444.472656 451.300781 C 444.472656 450.367188 444.3125 449.484375 444.003906 448.632812 C 443.6875 447.792969 443.253906 447.050781 442.703125 446.398438 C 442.144531 445.757812 441.488281 445.25 440.738281 444.867188 C 439.980469 444.46875 439.144531 444.265625 438.238281 444.265625 C 437.28125 444.265625 436.414062 444.46875 435.636719 444.867188 C 434.855469 445.265625 434.203125 445.800781 433.671875 446.46875 C 433.136719 447.132812 432.722656 447.890625 432.4375 448.734375 C 432.144531 449.558594 432.003906 450.417969 432.003906 451.300781 Z M 432.003906 451.300781 "/>
<path style=" stroke:none;fill-rule:nonzero;fill:rgb(15.294118%,12.54902%,13.72549%);fill-opacity:1;" d="M 454.320312 445.96875 L 454.320312 459.699219 L 452.65625 459.699219 L 452.65625 442.867188 L 453.953125 442.867188 L 465.085938 456.867188 L 465.085938 442.898438 L 466.753906 442.898438 L 466.753906 459.699219 L 465.289062 459.699219 Z M 454.320312 445.96875 "/>
<path style=" stroke:none;fill-rule:nonzero;fill:rgb(15.294118%,12.54902%,13.72549%);fill-opacity:1;" d="M 485.667969 458.234375 L 485.667969 459.699219 L 474.367188 459.699219 L 474.367188 442.867188 L 485.46875 442.867188 L 485.46875 444.332031 L 476.035156 444.332031 L 476.035156 450.398438 L 484.269531 450.398438 L 484.269531 451.800781 L 476.035156 451.800781 L 476.035156 458.234375 Z M 485.667969 458.234375 "/>
</g>
</svg>
